<svg width="100%" height="100%" viewBox="0 0 24 24" preserveAspectRatio="xMaxYMax" fill="none" xmlns="http://www.w3.org/2000/svg">
<path d="M17.0693 1.39697C15.6303 1.39697 14.3124 1.84597 13.1524 2.72997C12.7044 3.07097 12.3245 3.44997 12.0005 3.82797C11.6765 3.44997 11.2965 3.07197 10.8485 2.72997C9.68857 1.84497 8.37063 1.39697 6.93169 1.39697C2.98085 1.39697 0.000976562 4.54897 0.000976562 8.72897C0.000976562 12.909 3.42783 15.947 8.17464 19.938C8.9626 20.6 9.85557 21.351 10.7805 22.149C11.1185 22.441 11.5515 22.602 12.0005 22.602C12.4495 22.602 12.8824 22.441 13.2194 22.15C14.1414 21.355 15.0314 20.606 15.8313 19.933C20.5731 15.947 24 13.067 24 8.72897C24 4.39097 21.0201 1.39697 17.0693 1.39697ZM14.2914 18.131C13.5944 18.717 12.8144 19.373 12.0005 20.072C11.1835 19.371 10.3995 18.711 9.69557 18.119C5.28576 14.412 2.37188 11.963 2.37188 8.72897C2.37188 5.90097 4.3318 3.76797 6.93169 3.76797C7.83965 3.76797 8.67361 4.05297 9.41058 4.61597C10.1646 5.19097 10.6715 5.94097 10.9635 6.46797L10.9665 6.46597C11.0705 6.65397 11.2235 6.81697 11.4255 6.92897C11.9985 7.24697 12.7194 7.03997 13.0374 6.46797C13.3304 5.93997 13.8384 5.18997 14.5914 4.61597C15.3283 4.05397 16.1623 3.76797 17.0703 3.76797C19.6692 3.76797 21.6301 5.90097 21.6301 8.72897C21.6301 11.963 18.7172 14.411 14.2924 18.131H14.2914Z" fill="black"/>
</svg>
