<svg width="100%" height="100%" viewBox="0 0 24 24" preserveAspectRatio="xMaxYMax" fill="none" xmlns="http://www.w3.org/2000/svg">
<path d="M17.625 1.40601C16.323 1.40601 15.129 1.81901 14.076 2.63301C13.067 3.41301 12.395 4.40701 12 5.13001C11.605 4.40701 10.933 3.41301 9.924 2.63301C8.872 1.81901 7.678 1.40601 6.375 1.40601C2.741 1.40601 0 4.37901 0 8.32101C0 12.58 3.419 15.494 8.595 19.905C9.474 20.654 10.47 21.503 11.506 22.409C11.643 22.529 11.818 22.594 12 22.594C12.182 22.594 12.357 22.528 12.494 22.409C13.53 21.503 14.526 20.654 15.405 19.905C20.581 15.494 24 12.581 24 8.32201C24 4.38001 21.259 1.40701 17.625 1.40701V1.40601Z" fill="black"/>
</svg>
