<svg width="32" height="32" viewBox="0 0 32 32" fill="none" xmlns="http://www.w3.org/2000/svg">
<g clip-path="url(#clip0_760_13057)">
<path d="M16 17.52C16.8395 17.52 17.52 16.8395 17.52 16C17.52 15.1605 16.8395 14.48 16 14.48C15.1605 14.48 14.48 15.1605 14.48 16C14.48 16.8395 15.1605 17.52 16 17.52Z" fill="white"/>
<path d="M10.1782 17.52C11.0177 17.52 11.6982 16.8395 11.6982 16C11.6982 15.1605 11.0177 14.48 10.1782 14.48C9.33873 14.48 8.6582 15.1605 8.6582 16C8.6582 16.8395 9.33873 17.52 10.1782 17.52Z" fill="white"/>
<path d="M21.8213 17.52C22.6607 17.52 23.3413 16.8395 23.3413 16C23.3413 15.1605 22.6607 14.48 21.8213 14.48C20.9818 14.48 20.3013 15.1605 20.3013 16C20.3013 16.8395 20.9818 17.52 21.8213 17.52Z" fill="white"/>
</g>
<defs>
<clipPath id="clip0_760_13057">
<rect width="20" height="20" fill="white" transform="translate(6 6)"/>
</clipPath>
</defs>
</svg>
