<svg width="17" height="20" viewBox="0 0 17 20" fill="none" xmlns="http://www.w3.org/2000/svg">
<path d="M16.607 15.5861C16.3031 16.2848 15.9435 16.928 15.5268 17.5193C14.9588 18.3255 14.4938 18.8835 14.1354 19.1934C13.5798 19.702 12.9845 19.9625 12.3471 19.9773C11.8894 19.9773 11.3376 19.8477 10.6952 19.5847C10.0507 19.323 9.45838 19.1934 8.9168 19.1934C8.34882 19.1934 7.73965 19.323 7.08808 19.5847C6.43551 19.8477 5.90981 19.9847 5.50788 19.9983C4.89661 20.0242 4.28733 19.7563 3.67916 19.1934C3.29099 18.8563 2.80547 18.2786 2.22384 17.4601C1.5998 16.586 1.08675 15.5725 0.684816 14.417C0.25436 13.1689 0.0385742 11.9603 0.0385742 10.7902C0.0385742 9.44984 0.329513 8.29383 0.912259 7.32509C1.37025 6.54697 1.97953 5.93316 2.7421 5.48255C3.50467 5.03195 4.32862 4.80233 5.21595 4.78763C5.70147 4.78763 6.33816 4.93714 7.12938 5.23096C7.91836 5.52576 8.42496 5.67526 8.64707 5.67526C8.81313 5.67526 9.37591 5.50045 10.33 5.15195C11.2322 4.82874 11.9936 4.69492 12.6174 4.74764C14.3077 4.88344 15.5776 5.54675 16.4222 6.74177C14.9104 7.6536 14.1626 8.93072 14.1775 10.5691C14.1912 11.8452 14.6562 12.9071 15.5702 13.7503C15.9844 14.1417 16.447 14.4441 16.9617 14.6589C16.85 14.9812 16.7322 15.2898 16.607 15.5861ZM12.7303 0.400114C12.7303 1.40034 12.3632 2.33425 11.6315 3.19867C10.7485 4.22629 9.68049 4.8201 8.52231 4.7264C8.50755 4.60641 8.499 4.48011 8.499 4.3474C8.499 3.38718 8.91891 2.35956 9.66461 1.51934C10.0369 1.09392 10.5104 0.74019 11.0846 0.458013C11.6575 0.180046 12.1995 0.0263242 12.7092 0C12.7241 0.133715 12.7303 0.267451 12.7303 0.400114Z" fill="white"/>
</svg>
